# xmcd
#
# Track frame offsets:
#	150
#	17966
#	42321
#	59941
#	86580
#	107584
#	118478
#	138172
#	154121
#	172256
#
# Disc length: 2510 seconds
#
# Revision: 1
# Processed by: cddbd v1.5.2PL0 Copyright (c) Steve Scherf et al.
# Submitted via: audiograbber 1.83.01
#
DISCID=9209cc0a
DTITLE=Ricky Portera - CI SONO COSE
DYEAR=2007
DGENRE=pop
TTITLE0=Ci sono cose
TTITLE1=La sera dei miracoli
TTITLE2=Un'emozione
TTITLE3=Bambina mia
TTITLE4=Canzoni alla radio
TTITLE5=Impressioni d'autore
TTITLE6=Bastardo dentro
TTITLE7=Alla luna
TTITLE8=Via da me
TTITLE9=Troppo sesso
EXTD=
EXTT0=
EXTT1=
EXTT2=
EXTT3=
EXTT4=
EXTT5=
EXTT6=
EXTT7=
EXTT8=
EXTT9=
PLAYORDER=
